# xmcd
#
# Track frame offsets:
#	150
#	17945
#	37015
#	51683
#	71958
#	85365
#	100865
#	118075
#	132396
#	148676
#	164329
#	178600
#	196667
#	215849
#	229517
#	248322
#	266814
#	284595
#	297633
#	315129
#
# Disc length: 4460 seconds
#
# Revision: 0
# Processed by: cddbd v1.5.2PL0 Copyright (c) Steve Scherf et al.
# Submitted via: EasyCDDAExtractor 16.0.6.1
#
DISCID=3b116a14
DTITLE=Συλλογικός δίσκος - Τα ρεμπέτικα Α 1850-1922 02 Α
DYEAR=2010
DGENRE=Ρεμπέτικη
TTITLE0=Πυρρής Χαρίλαος - Γιάνναρος [ζεϊμπέκικο, Νέα Υόρκη 10.11.1929]
TTITLE1=Παπαγκίκα Μαρίκα - Γκελ γκελ [καρσιλαμάς, Νέα Υόρκη Ιανουάρ. 1928]
TTITLE2=Διαμαντίδης Αντώνης ή Νταλγκάς - Μαστίχα [Αθήνα 1928]
TTITLE3=Κατσαρός Γιώργος - Α! Κακούργα Έλλη [Νέα Υόρκη 16.7.1927 ή 15.12.1919]
TTITLE4=Βιδάλης Γιώργος - Οζμάν αγάς [δημώδες, Αθήνα 1927]
TTITLE5=Βάκα Αμαλία - Παραμάνα κούνα κούνα [ζεϊμπέκικο, Νέα Υόρκη 11.4.1927]
TTITLE6=Κοβορός Ι.-Παπουτσής Ν. - Χάϊδω [ρεμπέτικο καλαματιανός, Σικάγο Απρίλ.
TTITLE6=1928]
TTITLE7=Διαμαντίδης Αντώνης ή Νταλγκάς - Σμυρνιά μου το φακιόλι σου [καλαματια
TTITLE7=νός, Αθήνα 1927]
TTITLE8=Παπαγκίκα Μαρίκα - Θα σπάσω κούπες [τσιφτέ-τελλί, Νέα Υόρκη Φεβρ. 1928
TTITLE8=]
TTITLE9=Σωφρονίου Ευάγγελος - Μανές μινόρε [δημώδες, Αθήνα 1927]
TTITLE10=Βιδάλης Γιώργος - Το Μποχώρι [ζεϊμπέκικο, Αθήνα 1926]
TTITLE11=Παπαγκίκα Μαρίκα - Στη φυλακή με βάλανε [ρεμπέτικο, Νέα Υόρκη 1928]
TTITLE12=Σμυρνιός Λεωνίδας - Ο χωριάτης ντούρου ντούρου [συρτός, ΗΠΑ Ιανουάρ. 
TTITLE12=1927]
TTITLE13=Διαμαντίδης Αντώνης ή Νταλγκάς - Η νταμίρα [ζεϊμπέκικο, Αθήνα Φεβρουά
TTITLE13=ρ. 1926]
TTITLE14=Στάμος Άγγελος - Το μπαρμπούτι [ζεϊμπέκικο, Σπ. Στάμος, Σικάγο 1920]
TTITLE15=Παπαγκίκα Μαρίκα - Αχ, γιατρέ μου [ρεμπέτικο, Νέα Υόρκη 1928 ή 1929]
TTITLE16=Καζής Μιλτιάδης - Σύρε το πασουμάκι σου [ζεϊμπέκικος, Νέα Υόρκη Ιούλ.
TTITLE16=1928]
TTITLE17=Διαμαντίδης Αντώνης ή Νταλγκάς - Άντε να πεθάνης [ρεμπέτικο, Γ. Σαλαβ
TTITLE17=άρης, Αθήνα 1929]
TTITLE18=Σμυρνιός Λεωνίδας - Το νέον Τζιβαΐρι [Νέα Υόρκη, 11.4.1927]
TTITLE19=Άνευ ερμηνευτού - Μπουρδούσενα [ζεϊμπέκικο οργ., Βρούβας Τρίο, Νέα Υό
TTITLE19=ρκη Δεκ. 1926]
EXTD=
EXTT0=
EXTT1=
EXTT2=
EXTT3=
EXTT4=
EXTT5=
EXTT6=
EXTT7=
EXTT8=
EXTT9=
EXTT10=
EXTT11=
EXTT12=
EXTT13=
EXTT14=
EXTT15=
EXTT16=
EXTT17=
EXTT18=
EXTT19=
PLAYORDER=
